<svg xmlns="http://www.w3.org/2000/svg" viewBox="0 0 16 16" width="16" height="16" shape-rendering="crispEdges"><title>화면</title><rect x="1" y="1" width="14" height="1" fill="#21242e"/><rect x="1" y="2" width="1" height="1" fill="#21242e"/><rect x="2" y="2" width="12" height="1" fill="#c0d5e6"/><rect x="14" y="2" width="1" height="1" fill="#21242e"/><rect x="1" y="3" width="1" height="1" fill="#21242e"/><rect x="2" y="3" width="8" height="1" fill="#c0d5e6"/><rect x="10" y="3" width="2" height="1" fill="#ecab37"/><rect x="12" y="3" width="2" height="1" fill="#c0d5e6"/><rect x="14" y="3" width="1" height="1" fill="#21242e"/><rect x="1" y="4" width="1" height="1" fill="#21242e"/><rect x="2" y="4" width="8" height="1" fill="#c0d5e6"/><rect x="10" y="4" width="2" height="1" fill="#ecab37"/><rect x="12" y="4" width="2" height="1" fill="#c0d5e6"/><rect x="14" y="4" width="1" height="1" fill="#21242e"/><rect x="1" y="5" width="1" height="1" fill="#21242e"/><rect x="2" y="5" width="12" height="1" fill="#c0d5e6"/><rect x="14" y="5" width="1" height="1" fill="#21242e"/><rect x="1" y="6" width="1" height="1" fill="#21242e"/><rect x="2" y="6" width="3" height="1" fill="#c0d5e6"/><rect x="5" y="6" width="2" height="1" fill="#206479"/><rect x="7" y="6" width="7" height="1" fill="#c0d5e6"/><rect x="14" y="6" width="1" height="1" fill="#21242e"/><rect x="1" y="7" width="1" height="1" fill="#21242e"/><rect x="2" y="7" width="2" height="1" fill="#c0d5e6"/><rect x="4" y="7" width="4" height="1" fill="#206479"/><rect x="8" y="7" width="3" height="1" fill="#c0d5e6"/><rect x="11" y="7" width="1" height="1" fill="#206479"/><rect x="12" y="7" width="2" height="1" fill="#c0d5e6"/><rect x="14" y="7" width="1" height="1" fill="#21242e"/><rect x="1" y="8" width="1" height="1" fill="#21242e"/><rect x="2" y="8" width="12" height="1" fill="#206479"/><rect x="14" y="8" width="1" height="1" fill="#21242e"/><rect x="1" y="9" width="1" height="1" fill="#21242e"/><rect x="2" y="9" width="12" height="1" fill="#f68d1f"/><rect x="14" y="9" width="1" height="1" fill="#21242e"/><rect x="1" y="10" width="14" height="1" fill="#21242e"/><rect x="6" y="11" width="4" height="1" fill="#21242e"/><rect x="4" y="12" width="8" height="1" fill="#21242e"/></svg>
